<svg width="390" height="158" viewBox="0 0 390 158" fill="none" xmlns="http://www.w3.org/2000/svg">
<path d="M14.5 24C14.5 10.7452 25.2452 0 38.5 0C51.7548 0 62.5 10.7452 62.5 24C62.5 37.2548 51.7548 48 38.5 48C25.2452 48 14.5 37.2548 14.5 24Z" fill="#F9F9F9"/>
<g clip-path="url(#clip0_2470_15773)">
<path fill-rule="evenodd" clip-rule="evenodd" d="M38.4966 23.3505L34.3596 24.4335C32.8986 24.795 31.6206 25.2765 30.3891 24.855C28.7151 24.132 28.7451 22.251 29.9931 20.25C27.7866 22.071 23.8161 27.894 29.1861 28.482C29.8701 28.572 31.0881 28.332 32.4111 27.7755L38.4966 25.278L50.4996 20.37L39.9876 22.959L38.4966 23.3505Z" fill="#263238"/>
</g>
<path d="M28.8809 61V53.8906H30.082L33.2119 58.7393C33.2738 58.8369 33.334 58.9427 33.3926 59.0566C33.4512 59.1706 33.5 59.2715 33.5391 59.3594H33.583C33.5765 59.2585 33.57 59.1315 33.5635 58.9785C33.5602 58.8255 33.5586 58.6986 33.5586 58.5977V53.8906H34.5938V61H33.3877L30.248 56.1416C30.1829 56.0439 30.1243 55.9463 30.0723 55.8486C30.0202 55.751 29.973 55.6582 29.9307 55.5703H29.8916C29.8949 55.6712 29.8997 55.7819 29.9062 55.9023C29.9128 56.0228 29.916 56.1335 29.916 56.2344V61H28.8809ZM36.166 61V55.7266H37.2549V61H36.166ZM36.0635 54.2324C36.0635 54.0632 36.1188 53.9199 36.2295 53.8027C36.3402 53.6855 36.4997 53.627 36.708 53.627C36.9163 53.627 37.0758 53.6855 37.1865 53.8027C37.3005 53.9199 37.3574 54.0648 37.3574 54.2373C37.3574 54.4098 37.3005 54.5547 37.1865 54.6719C37.0758 54.7891 36.9163 54.8477 36.708 54.8477C36.4997 54.8477 36.3402 54.7891 36.2295 54.6719C36.1188 54.5547 36.0635 54.4082 36.0635 54.2324ZM38.7246 61V53.5049H39.8086V58.0068L41.9375 55.7266H43.1826L39.8086 59.2373V61H38.7246ZM42.1523 61L40.126 58.2998L40.8389 57.5381L43.4561 61H42.1523ZM43.6855 58.4414V58.2852C43.6855 57.4876 43.9167 56.8382 44.3789 56.3369C44.8411 55.8324 45.4482 55.5801 46.2002 55.5801C46.9587 55.5801 47.543 55.8161 47.9531 56.2881C48.3665 56.7568 48.5732 57.3932 48.5732 58.1973V58.627H44.3887V57.8213H47.4795V57.7773C47.4795 57.4062 47.3786 57.0889 47.1768 56.8252C46.9749 56.5583 46.651 56.4248 46.2051 56.4248C45.7396 56.4248 45.3848 56.6022 45.1406 56.957C44.8997 57.3118 44.7793 57.7513 44.7793 58.2754V58.4463C44.7793 58.9704 44.9079 59.4098 45.165 59.7646C45.4222 60.1195 45.8161 60.2969 46.3467 60.2969C46.6787 60.2969 46.9652 60.2253 47.2061 60.082C47.4469 59.9388 47.6423 59.7712 47.792 59.5791L48.5049 60.1357C48.3356 60.3929 48.0654 60.6257 47.6943 60.834C47.3232 61.0423 46.874 61.1465 46.3467 61.1465C45.4906 61.1465 44.833 60.8958 44.374 60.3945C43.915 59.89 43.6855 59.2389 43.6855 58.4414Z" fill="#2A2A2A"/>
<path d="M14.5 118C14.5 104.745 25.2452 94 38.5 94C51.7548 94 62.5 104.745 62.5 118C62.5 131.255 51.7548 142 38.5 142C25.2452 142 14.5 131.255 14.5 118Z" fill="#F9F9F9"/>
<g clip-path="url(#clip1_2470_15773)">
<path d="M46.5805 117.469L50.5 123.999H44.2045L40.462 117.76L37.627 113.04L40.462 111.336L42.247 110.262L46.5805 117.469ZM40.462 121.431L41.998 123.999H35.707L32.2135 118.185L32.0605 117.931L32.2135 117.841L36.6865 115.149L40.462 121.431ZM32.2135 121.851L33.502 123.999H27.2065L26.5 122.82L31.1245 120.042L32.2135 121.851Z" fill="#263238"/>
</g>
<path d="M22.2646 155L24.9844 147.852H26.1025L28.832 155H27.6406L25.7266 149.756C25.681 149.639 25.6419 149.526 25.6094 149.419C25.5801 149.312 25.5524 149.201 25.5264 149.087H25.4775C25.4515 149.201 25.4222 149.312 25.3896 149.419C25.3571 149.526 25.3197 149.639 25.2773 149.756L23.3486 155H22.2646ZM23.5 153.237L23.8223 152.344L27.2256 152.349L27.5479 153.242L23.5 153.237ZM29.2227 152.441V152.285C29.2227 151.514 29.431 150.879 29.8477 150.381C30.2676 149.88 30.8258 149.629 31.5225 149.629C31.8968 149.629 32.2158 149.692 32.4795 149.819C32.7464 149.946 32.958 150.116 33.1143 150.327V147.505H34.2031V155H33.1973L33.1582 154.331H33.1338C33.0003 154.546 32.792 154.728 32.5088 154.878C32.2256 155.024 31.8968 155.098 31.5225 155.098C30.8226 155.098 30.2643 154.847 29.8477 154.346C29.431 153.844 29.2227 153.21 29.2227 152.441ZM30.3408 152.451C30.3408 152.956 30.4564 153.379 30.6875 153.721C30.9186 154.062 31.2799 154.233 31.7715 154.233C32.1003 154.233 32.3802 154.147 32.6113 153.975C32.8424 153.799 33.0101 153.597 33.1143 153.369V151.357C33.0101 151.13 32.8424 150.929 32.6113 150.757C32.3835 150.581 32.1035 150.493 31.7715 150.493C31.2799 150.493 30.9186 150.664 30.6875 151.006C30.4564 151.348 30.3408 151.771 30.3408 152.275V152.451ZM35.6631 155V149.727H36.752V155H35.6631ZM35.5605 148.232C35.5605 148.063 35.6159 147.92 35.7266 147.803C35.8372 147.686 35.9967 147.627 36.2051 147.627C36.4134 147.627 36.5729 147.686 36.6836 147.803C36.7975 147.92 36.8545 148.065 36.8545 148.237C36.8545 148.41 36.7975 148.555 36.6836 148.672C36.5729 148.789 36.4134 148.848 36.2051 148.848C35.9967 148.848 35.8372 148.789 35.7266 148.672C35.6159 148.555 35.5605 148.408 35.5605 148.232ZM37.9141 152.441V152.285C37.9141 151.514 38.1224 150.879 38.5391 150.381C38.959 149.88 39.5173 149.629 40.2139 149.629C40.5882 149.629 40.9072 149.692 41.1709 149.819C41.4378 149.946 41.6494 150.116 41.8057 150.327V147.505H42.8945V155H41.8887L41.8496 154.331H41.8252C41.6917 154.546 41.4834 154.728 41.2002 154.878C40.917 155.024 40.5882 155.098 40.2139 155.098C39.514 155.098 38.9557 154.847 38.5391 154.346C38.1224 153.844 37.9141 153.21 37.9141 152.441ZM39.0322 152.451C39.0322 152.956 39.1478 153.379 39.3789 153.721C39.61 154.062 39.9714 154.233 40.4629 154.233C40.7917 154.233 41.0716 154.147 41.3027 153.975C41.5339 153.799 41.7015 153.597 41.8057 153.369V151.357C41.7015 151.13 41.5339 150.929 41.3027 150.757C41.0749 150.581 40.7949 150.493 40.4629 150.493C39.9714 150.493 39.61 150.664 39.3789 151.006C39.1478 151.348 39.0322 151.771 39.0322 152.275V152.451ZM44.0322 153.447C44.0322 152.904 44.2568 152.482 44.7061 152.183C45.1553 151.883 45.7249 151.733 46.415 151.733H47.6064V151.348C47.6064 151.068 47.5251 150.84 47.3623 150.664C47.1995 150.485 46.9212 150.396 46.5273 150.396C46.1302 150.396 45.847 150.474 45.6777 150.63C45.5085 150.786 45.4238 150.967 45.4238 151.172V151.206H44.335V151.172C44.335 150.742 44.5352 150.369 44.9355 150.054C45.3392 149.738 45.8796 149.58 46.5566 149.58C47.2337 149.58 47.7594 149.728 48.1338 150.024C48.5081 150.317 48.6953 150.758 48.6953 151.348V153.828C48.6953 154.04 48.7116 154.24 48.7441 154.429C48.7799 154.618 48.8271 154.782 48.8857 154.922V155H47.8311C47.7855 154.919 47.7432 154.811 47.7041 154.678C47.6683 154.544 47.6439 154.414 47.6309 154.287C47.5072 154.499 47.3005 154.688 47.0107 154.854C46.7243 155.016 46.3564 155.098 45.9072 155.098C45.3864 155.098 44.9437 154.958 44.5791 154.678C44.2145 154.395 44.0322 153.984 44.0322 153.447ZM45.1211 153.394C45.1211 153.67 45.2057 153.888 45.375 154.048C45.5475 154.204 45.8128 154.282 46.1709 154.282C46.5387 154.282 46.8691 154.163 47.1621 153.926C47.4583 153.688 47.6064 153.434 47.6064 153.164V152.471H46.5273C46.0651 152.471 45.7152 152.554 45.4775 152.72C45.2399 152.886 45.1211 153.11 45.1211 153.394ZM49.7939 153.423H50.8779V153.462C50.8779 153.745 50.987 153.96 51.2051 154.106C51.4264 154.253 51.7194 154.326 52.084 154.326C52.4518 154.326 52.7367 154.258 52.9385 154.121C53.1403 153.984 53.2412 153.805 53.2412 153.584C53.2412 153.359 53.1582 153.19 52.9922 153.076C52.8262 152.959 52.4388 152.839 51.8301 152.715C51.2148 152.591 50.7477 152.402 50.4287 152.148C50.113 151.895 49.9551 151.551 49.9551 151.118C49.9551 150.672 50.1455 150.304 50.5264 150.015C50.9072 149.725 51.4199 149.58 52.0645 149.58C52.7155 149.58 53.2347 149.728 53.6221 150.024C54.0127 150.321 54.208 150.713 54.208 151.201V151.24H53.1289V151.196C53.1289 150.952 53.041 150.758 52.8652 150.615C52.6927 150.469 52.4258 150.396 52.0645 150.396C51.6999 150.396 51.4362 150.459 51.2734 150.586C51.1139 150.713 51.0342 150.869 51.0342 151.055C51.0342 151.247 51.1204 151.4 51.293 151.514C51.4655 151.624 51.861 151.742 52.4795 151.865C53.0915 151.989 53.5521 152.181 53.8613 152.441C54.1738 152.699 54.3301 153.057 54.3301 153.516C54.3301 153.997 54.1413 154.39 53.7637 154.692C53.3893 154.995 52.8294 155.146 52.084 155.146C51.3418 155.146 50.7738 154.993 50.3799 154.688C49.9893 154.382 49.7939 153.971 49.7939 153.457V153.423Z" fill="#2A2A2A"/>
<path d="M109.5 24C109.5 10.7452 120.245 0 133.5 0C146.755 0 157.5 10.7452 157.5 24C157.5 37.2548 146.755 48 133.5 48C120.245 48 109.5 37.2548 109.5 24Z" fill="#F9F9F9"/>
<g clip-path="url(#clip2_2470_15773)">
<path d="M137.413 31.9995C136.492 32.0005 135.578 31.8456 134.71 31.5415C134.142 31.3405 133.6 31.0744 133.094 30.7485C132.501 30.3778 131.959 29.931 131.483 29.4195C130.472 28.3584 129.784 27.0324 129.497 25.5955C129.475 25.4868 129.478 25.3747 129.505 25.2672C129.532 25.1597 129.582 25.0595 129.653 24.9739C129.723 24.8882 129.811 24.8192 129.911 24.7717C130.012 24.7243 130.121 24.6996 130.232 24.6995H132.032C132.231 24.6995 132.421 24.7786 132.562 24.9192C132.703 25.0599 132.782 25.2506 132.782 25.4495C132.782 25.6484 132.703 25.8392 132.562 25.9799C132.421 26.1205 132.231 26.1995 132.032 26.1995H131.218C131.514 27.0171 131.977 27.7642 132.577 28.3935C132.96 28.8075 133.403 29.1715 133.9 29.4835C134.314 29.7505 134.752 29.9645 135.209 30.1265C135.917 30.3743 136.663 30.5004 137.414 30.4995C141.046 30.4995 144.001 27.5835 144.001 23.9995C144.001 20.4155 141.046 17.4995 137.414 17.4995C136.171 17.4965 134.953 17.8483 133.903 18.5135C132.651 19.2759 131.702 20.4473 131.215 21.8295C131.182 21.9226 131.132 22.0083 131.067 22.0819C131.001 22.1555 130.922 22.2154 130.833 22.2583C130.654 22.345 130.448 22.3569 130.26 22.2915C130.167 22.2592 130.081 22.2088 130.007 22.1433C129.934 22.0778 129.874 21.9984 129.831 21.9097C129.744 21.7306 129.732 21.5244 129.798 21.3365C130.397 19.6306 131.566 18.1838 133.109 17.2405C134.396 16.4263 135.889 15.9958 137.413 15.9995C141.872 15.9995 145.5 19.5885 145.5 23.9995C145.5 28.4105 141.872 31.9995 137.413 31.9995Z" fill="black"/>
<path d="M129.587 31.9995C125.128 31.9995 121.5 28.4105 121.5 23.9995C121.5 19.5885 125.128 15.9995 129.587 15.9995C131.126 15.9995 132.619 16.4315 133.902 17.2475C135.44 18.1902 136.605 19.6344 137.202 21.3365C137.267 21.5244 137.255 21.7306 137.169 21.9097C137.082 22.0888 136.928 22.2261 136.74 22.2915C136.552 22.3569 136.346 22.3449 136.167 22.2583C135.988 22.1717 135.85 22.0174 135.785 21.8295C135.301 20.4507 134.355 19.2815 133.108 18.5195C132.055 17.851 130.834 17.4971 129.587 17.4995C125.955 17.4995 123 20.4155 123 23.9995C123 27.5835 125.955 30.4995 129.587 30.4995C130.344 30.4995 131.087 30.3745 131.795 30.1255C132.251 29.9639 132.687 29.7498 133.094 29.4875C133.581 29.1842 134.026 28.8185 134.418 28.3995C135.02 27.7682 135.485 27.0187 135.782 26.1985H134.968C134.769 26.1985 134.578 26.1195 134.438 25.9788C134.297 25.8382 134.218 25.6474 134.218 25.4485C134.218 25.2496 134.297 25.0588 134.438 24.9182C134.578 24.7775 134.769 24.6985 134.968 24.6985H136.768C136.879 24.6986 136.988 24.7233 137.088 24.7707C137.189 24.8181 137.277 24.8872 137.347 24.9728C137.417 25.0585 137.468 25.1587 137.495 25.2662C137.522 25.3737 137.525 25.4858 137.503 25.5945C137.215 27.0343 136.524 28.3627 135.511 29.4255C135.034 29.9363 134.492 30.3824 133.899 30.7525C133.396 31.0759 132.857 31.3403 132.293 31.5405C131.423 31.8452 130.508 32.0004 129.587 31.9995Z" fill="black"/>
</g>
<path d="M120.653 57.6553V57.2354C120.653 56.1351 120.951 55.279 121.547 54.667C122.143 54.0518 122.896 53.7441 123.808 53.7441C124.7 53.7441 125.39 53.9622 125.878 54.3984C126.366 54.8314 126.636 55.349 126.688 55.9512V56.0049H125.561L125.556 55.9561C125.536 55.6403 125.382 55.3457 125.092 55.0723C124.805 54.7988 124.374 54.6621 123.798 54.6621C123.209 54.6621 122.727 54.8883 122.353 55.3408C121.981 55.7933 121.796 56.4199 121.796 57.2207V57.6699C121.796 58.474 121.983 59.1022 122.357 59.5547C122.735 60.0039 123.264 60.2285 123.944 60.2285C124.299 60.2285 124.604 60.1943 124.857 60.126C125.115 60.0544 125.36 59.9404 125.595 59.7842V58.2705H123.842V57.3818H126.688V60.1797C126.448 60.4206 126.094 60.6419 125.629 60.8438C125.163 61.0456 124.602 61.1465 123.944 61.1465C122.938 61.1465 122.138 60.8405 121.542 60.2285C120.95 59.6133 120.653 58.7555 120.653 57.6553ZM127.807 59.0322V55.7266H128.896V59.0469C128.896 59.4668 128.988 59.7663 129.174 59.9453C129.363 60.1243 129.628 60.2139 129.97 60.2139C130.259 60.2139 130.517 60.1357 130.741 59.9795C130.966 59.8232 131.142 59.6214 131.269 59.374V55.7266H132.357V61H131.352L131.317 60.3262H131.288C131.096 60.5736 130.857 60.764 130.57 60.8975C130.287 61.0309 129.975 61.0977 129.633 61.0977C129.079 61.0977 128.637 60.9398 128.305 60.624C127.973 60.305 127.807 59.7744 127.807 59.0322ZM133.476 58.4414V58.2852C133.476 57.4844 133.705 56.8333 134.164 56.332C134.626 55.8307 135.258 55.5801 136.059 55.5801C136.804 55.5801 137.37 55.7705 137.758 56.1514C138.145 56.5322 138.34 56.9587 138.344 57.4307V57.4648H137.279V57.4355C137.279 57.1686 137.182 56.9359 136.986 56.7373C136.794 56.5355 136.483 56.4346 136.054 56.4346C135.556 56.4346 135.188 56.612 134.95 56.9668C134.713 57.3184 134.594 57.7546 134.594 58.2754V58.4512C134.594 58.972 134.711 59.4098 134.945 59.7646C135.183 60.1162 135.552 60.292 136.054 60.292C136.483 60.292 136.794 60.1911 136.986 59.9893C137.182 59.7874 137.279 59.5547 137.279 59.291V59.2617H138.344V59.291C138.344 59.7663 138.148 60.1943 137.758 60.5752C137.37 60.9561 136.804 61.1465 136.059 61.1465C135.258 61.1465 134.626 60.8958 134.164 60.3945C133.705 59.8932 133.476 59.2422 133.476 58.4414ZM139.091 58.4414V58.2852C139.091 57.4844 139.32 56.8333 139.779 56.332C140.242 55.8307 140.873 55.5801 141.674 55.5801C142.419 55.5801 142.986 55.7705 143.373 56.1514C143.76 56.5322 143.956 56.9587 143.959 57.4307V57.4648H142.895V57.4355C142.895 57.1686 142.797 56.9359 142.602 56.7373C142.41 56.5355 142.099 56.4346 141.669 56.4346C141.171 56.4346 140.803 56.612 140.565 56.9668C140.328 57.3184 140.209 57.7546 140.209 58.2754V58.4512C140.209 58.972 140.326 59.4098 140.561 59.7646C140.798 60.1162 141.168 60.292 141.669 60.292C142.099 60.292 142.41 60.1911 142.602 59.9893C142.797 59.7874 142.895 59.5547 142.895 59.291V59.2617H143.959V59.291C143.959 59.7663 143.764 60.1943 143.373 60.5752C142.986 60.9561 142.419 61.1465 141.674 61.1465C140.873 61.1465 140.242 60.8958 139.779 60.3945C139.32 59.8932 139.091 59.2422 139.091 58.4414ZM145.053 61V55.7266H146.142V61H145.053ZM144.95 54.2324C144.95 54.0632 145.006 53.9199 145.116 53.8027C145.227 53.6855 145.386 53.627 145.595 53.627C145.803 53.627 145.963 53.6855 146.073 53.8027C146.187 53.9199 146.244 54.0648 146.244 54.2373C146.244 54.4098 146.187 54.5547 146.073 54.6719C145.963 54.7891 145.803 54.8477 145.595 54.8477C145.386 54.8477 145.227 54.7891 145.116 54.6719C145.006 54.5547 144.95 54.4082 144.95 54.2324Z" fill="#2A2A2A"/>
<path d="M109.5 118C109.5 104.745 120.245 94 133.5 94C146.755 94 157.5 104.745 157.5 118C157.5 131.255 146.755 142 133.5 142C120.245 142 109.5 131.255 109.5 118Z" fill="#F9F9F9"/>
<g clip-path="url(#clip3_2470_15773)">
<path d="M145.479 113C139.448 113.538 135.757 114.019 133.142 114.608C133.093 114.618 133.05 114.643 133.016 114.679C132.981 114.714 132.959 114.759 132.95 114.808C132.941 114.856 132.947 114.906 132.967 114.951C132.987 114.997 133.019 115.035 133.061 115.062L135.705 116.772C135.738 116.793 135.776 116.806 135.816 116.81C135.855 116.814 135.895 116.809 135.933 116.795L140.141 115.143C141.509 114.681 143.284 114.161 145.337 113.558L145.571 113.489C145.63 113.471 145.681 113.432 145.713 113.379C145.746 113.327 145.758 113.264 145.747 113.203C145.723 113.077 145.628 112.997 145.479 113ZM130.759 118.149C130.807 118.129 130.847 118.094 130.875 118.05C130.902 118.005 130.915 117.954 130.912 117.902C130.908 117.85 130.889 117.8 130.856 117.76C130.823 117.719 130.778 117.69 130.728 117.677L128.389 117.036C128.344 117.024 128.298 117.024 128.254 117.036C126.899 117.425 125.608 118.011 124.424 118.776C123.224 119.543 122.293 120.412 121.657 121.358C121.631 121.395 121.617 121.439 121.615 121.484C121.612 121.529 121.622 121.574 121.644 121.614C121.665 121.654 121.697 121.687 121.735 121.711C121.774 121.734 121.818 121.746 121.864 121.747H125.831C125.873 121.747 125.914 121.736 125.951 121.716C125.988 121.695 126.019 121.666 126.042 121.631C126.331 121.174 126.822 120.659 127.471 120.135C128.352 119.359 129.427 118.709 130.759 118.149ZM133.792 119.198L131.809 118.503C131.747 118.482 131.68 118.485 131.621 118.512C131.017 118.78 130.442 119.11 129.905 119.495C129.05 120.094 128.213 120.882 127.416 121.838C127.385 121.874 127.366 121.919 127.36 121.966C127.354 122.013 127.361 122.061 127.381 122.104C127.402 122.147 127.434 122.184 127.474 122.209C127.514 122.234 127.561 122.248 127.609 122.248H131.321C131.409 122.248 131.491 122.202 131.536 122.125C132.011 121.326 132.795 120.486 133.867 119.628C133.901 119.6 133.928 119.563 133.944 119.521C133.96 119.48 133.964 119.435 133.957 119.391C133.948 119.347 133.929 119.306 133.9 119.272C133.871 119.238 133.833 119.213 133.792 119.198ZM129.813 113.786C129.773 113.761 129.728 113.749 129.683 113.749H121.751C121.69 113.748 121.631 113.77 121.585 113.81C121.54 113.849 121.51 113.904 121.501 113.964C121.493 114.024 121.507 114.085 121.54 114.136C121.574 114.187 121.624 114.223 121.683 114.24L129.607 116.482C132.919 117.545 136.17 118.79 139.345 120.212C139.403 120.237 139.469 120.24 139.529 120.219C139.589 120.198 139.639 120.155 139.669 120.099C139.698 120.042 139.705 119.977 139.688 119.916C139.671 119.854 139.632 119.802 139.578 119.769L129.813 113.786Z" fill="black"/>
</g>
<path d="M116.684 155V147.891H119.174C119.991 147.891 120.622 148.086 121.068 148.477C121.518 148.864 121.742 149.383 121.742 150.034C121.742 150.688 121.518 151.216 121.068 151.616C120.622 152.013 119.991 152.212 119.174 152.212H117.807V155H116.684ZM117.807 151.328H119.169C119.709 151.328 120.085 151.204 120.297 150.957C120.512 150.706 120.619 150.4 120.619 150.039C120.619 149.674 120.512 149.373 120.297 149.136C120.085 148.895 119.709 148.774 119.169 148.774H117.807V151.328ZM120.81 155L119.057 151.719L120.224 151.597L122.084 155H120.81ZM122.689 152.441V152.285C122.689 151.488 122.921 150.838 123.383 150.337C123.845 149.832 124.452 149.58 125.204 149.58C125.963 149.58 126.547 149.816 126.957 150.288C127.37 150.757 127.577 151.393 127.577 152.197V152.627H123.393V151.821H126.483V151.777C126.483 151.406 126.382 151.089 126.181 150.825C125.979 150.558 125.655 150.425 125.209 150.425C124.743 150.425 124.389 150.602 124.145 150.957C123.904 151.312 123.783 151.751 123.783 152.275V152.446C123.783 152.97 123.912 153.41 124.169 153.765C124.426 154.119 124.82 154.297 125.351 154.297C125.683 154.297 125.969 154.225 126.21 154.082C126.451 153.939 126.646 153.771 126.796 153.579L127.509 154.136C127.34 154.393 127.069 154.626 126.698 154.834C126.327 155.042 125.878 155.146 125.351 155.146C124.494 155.146 123.837 154.896 123.378 154.395C122.919 153.89 122.689 153.239 122.689 152.441ZM128.354 152.441V152.285C128.354 151.488 128.585 150.838 129.047 150.337C129.509 149.832 130.116 149.58 130.868 149.58C131.627 149.58 132.211 149.816 132.621 150.288C133.035 150.757 133.241 151.393 133.241 152.197V152.627H129.057V151.821H132.147V151.777C132.147 151.406 132.047 151.089 131.845 150.825C131.643 150.558 131.319 150.425 130.873 150.425C130.408 150.425 130.053 150.602 129.809 150.957C129.568 151.312 129.447 151.751 129.447 152.275V152.446C129.447 152.97 129.576 153.41 129.833 153.765C130.09 154.119 130.484 154.297 131.015 154.297C131.347 154.297 131.633 154.225 131.874 154.082C132.115 153.939 132.31 153.771 132.46 153.579L133.173 154.136C133.004 154.393 132.733 154.626 132.362 154.834C131.991 155.042 131.542 155.146 131.015 155.146C130.159 155.146 129.501 154.896 129.042 154.395C128.583 153.89 128.354 153.239 128.354 152.441ZM134.32 155V147.505H135.404V150.332C135.564 150.117 135.777 149.946 136.044 149.819C136.314 149.692 136.636 149.629 137.011 149.629C137.704 149.629 138.257 149.88 138.671 150.381C139.088 150.879 139.296 151.514 139.296 152.285V152.441C139.296 153.213 139.088 153.849 138.671 154.351C138.257 154.849 137.704 155.098 137.011 155.098C136.636 155.098 136.306 155.024 136.02 154.878C135.733 154.728 135.523 154.548 135.39 154.336H135.36L135.321 155H134.32ZM135.404 153.364C135.508 153.592 135.676 153.794 135.907 153.97C136.138 154.146 136.42 154.233 136.752 154.233C137.243 154.233 137.603 154.062 137.831 153.721C138.062 153.379 138.178 152.954 138.178 152.446V152.275C138.178 151.771 138.062 151.348 137.831 151.006C137.603 150.664 137.243 150.493 136.752 150.493C136.42 150.493 136.138 150.581 135.907 150.757C135.676 150.933 135.508 151.134 135.404 151.362V153.364ZM140.106 152.441V152.285C140.106 151.484 140.346 150.833 140.824 150.332C141.303 149.831 141.939 149.58 142.733 149.58C143.528 149.58 144.164 149.831 144.643 150.332C145.121 150.833 145.36 151.484 145.36 152.285V152.441C145.36 153.239 145.121 153.89 144.643 154.395C144.164 154.896 143.528 155.146 142.733 155.146C141.939 155.146 141.303 154.896 140.824 154.395C140.346 153.89 140.106 153.239 140.106 152.441ZM141.225 152.275V152.451C141.225 152.972 141.352 153.408 141.605 153.76C141.859 154.108 142.235 154.282 142.733 154.282C143.231 154.282 143.607 154.108 143.861 153.76C144.118 153.408 144.247 152.97 144.247 152.446V152.275C144.247 151.755 144.118 151.32 143.861 150.972C143.607 150.62 143.231 150.444 142.733 150.444C142.235 150.444 141.859 150.62 141.605 150.972C141.352 151.32 141.225 151.755 141.225 152.275ZM146.488 155V147.505H147.572V152.007L149.701 149.727H150.946L147.572 153.237V155H146.488ZM149.916 155L147.89 152.3L148.603 151.538L151.22 155H149.916Z" fill="#2A2A2A"/>
<path d="M213.636 24C213.636 10.7452 224.381 0 237.636 0H239.365C252.62 0 263.365 10.7452 263.365 24C263.365 37.2548 252.62 48 239.365 48H237.636C224.381 48 213.636 37.2548 213.636 24Z" fill="#F9F9F9"/>
<g clip-path="url(#clip4_2470_15773)">
<path d="M239.613 13.6358C239.603 13.5825 239.596 13.5287 239.593 13.4746C239.54 12.7153 240.112 12.0569 240.871 12.0034C241.631 11.9504 242.289 12.5228 242.342 13.2821C242.395 14.0413 241.823 14.6998 241.064 14.7533C241.016 14.7569 240.969 14.7575 240.922 14.7557C240.891 14.7636 240.873 14.7674 240.846 14.7908C240.768 14.9125 241.045 14.8898 240.857 15.4221C240.857 15.4221 240.856 15.4805 240.835 15.5389C240.82 15.7432 240.741 16.3487 240.73 16.6711C240.77 16.7179 240.781 16.7406 240.777 16.8539C240.759 17.0071 240.724 17.3825 240.667 17.6231C240.619 17.8292 240.535 17.8685 240.467 17.919C240.372 18.3461 240.347 18.6999 240.102 19.2186C240.08 19.6118 240.052 19.7189 239.97 19.9109C239.961 20.4899 240.001 20.5761 239.61 21.4928C239.509 21.9216 239.605 22.2182 239.712 22.6637C239.82 23.1216 240.123 23.3129 240.167 23.7818C240.273 24.8861 240.247 25.6379 240.01 26.5037L240.217 26.9934C240.473 27.1111 241.11 27.4329 240.757 27.9423C241.254 28.2036 242.005 28.4812 242.625 29.0112C242.874 29.2187 243.137 29.445 243.374 29.7106C243.824 29.7807 243.776 29.8164 244.109 30.0213C245.089 30.6224 246.661 31.8147 247.573 32.6589C247.73 32.7506 247.794 32.8166 247.92 32.8831C247.94 32.921 247.945 32.9298 247.941 32.9401C247.898 33.0503 247.899 33.0535 247.86 33.1413C247.909 33.1957 248.001 33.2465 248.055 33.2941C248.107 33.31 248.107 33.2855 248.195 33.2639C248.309 33.371 248.451 33.4573 248.501 33.4523C248.657 33.4129 248.63 33.445 248.761 33.2984C248.808 33.2498 248.887 33.299 248.887 33.299C248.937 33.2412 249.042 33.1261 249.183 33.0429C249.296 32.9765 249.511 32.9691 249.511 32.9691C249.583 32.9698 249.569 33.0435 249.563 33.0676C249.482 33.1095 249.31 33.1556 249.213 33.2269C249.002 33.4446 248.838 33.7383 248.838 33.7383C249.261 33.6804 249.522 33.7856 249.875 33.7451C250.068 33.7339 250.21 33.7463 250.412 33.5999C250.412 33.5999 250.607 33.4615 250.781 33.3881C250.95 33.3143 251.11 33.3537 251.259 33.4618C251.365 33.5805 251.428 33.5811 251.268 33.7487C251.21 33.8138 251.126 33.8864 251.02 33.9917C250.833 34.1765 250.581 34.4229 250.321 34.6268C250.056 34.8329 249.757 35.018 249.57 35.1029C249.098 35.442 249.209 35.3533 248.838 35.6894C248.791 35.7313 248.667 35.8063 248.607 35.8462C248.461 35.9423 248.415 35.8622 248.32 35.6863C248.32 35.6863 248.276 35.6206 248.204 35.4802C248.125 35.327 248.066 35.1518 248.09 35.1547C248.002 35.1436 247.606 34.6796 247.605 34.5801C247.522 34.5609 247.165 34.2153 247.152 34.1493L246.836 33.8958C246.474 33.9709 246.391 33.7462 245.435 33.0682C245.326 33.0663 245.158 33.0074 244.917 32.8284C244.485 32.483 243.451 31.7016 243.276 31.6123C243.087 31.5164 242.862 31.426 242.724 31.3121C242.517 31.274 242.404 31.2524 242.301 31.2235C242.195 31.1946 242.099 31.1572 241.831 31.1214C241.396 31.0672 240.944 30.8869 240.514 30.6717C240.31 30.5752 240.133 30.526 239.958 30.4506C239.565 30.2846 239.228 30.135 238.966 30.0747C238.867 30.0648 238.393 29.9227 238.144 29.7776C238.058 29.7333 238.008 29.6908 237.952 29.6778C237.821 29.6478 237.737 29.6994 237.679 29.7192C237.36 29.8853 237.061 30.0287 236.786 30.1771C236.529 30.3143 236.293 30.4568 236.042 30.601C235.816 30.7315 235.556 30.8544 235.287 30.9825C235.287 30.9825 234.522 31.3659 234.105 31.5149C233.742 31.8108 233.001 32.3226 232.549 32.5762C232.325 32.6826 231.89 32.9582 231.69 33.0199C231.575 33.112 231.167 33.4031 230.848 33.6431C230.601 33.8277 230.415 33.9834 230.415 33.9834C230.271 34.1119 230.281 34.1729 230.009 34.0571C229.933 34.1193 229.875 34.158 229.826 34.1937C229.629 34.3365 229.612 34.3021 229.54 34.2983C229.403 34.4171 229.386 34.3557 229.266 34.4923C229.187 34.6143 229.268 34.5852 229.102 34.6443C229.067 34.6578 229.05 34.7002 229.023 34.7237C228.889 34.8336 228.889 35.1445 228.569 35.1667C228.384 35.2989 228.431 35.4585 228.29 35.4515C228.298 35.5886 228.039 35.7888 227.992 35.7881C227.584 35.9289 227.556 35.629 227.066 35.8528C227.003 35.8818 226.91 35.9619 226.788 35.9851C226.572 36.0257 226.312 35.9831 226.153 35.8602C225.903 35.6675 225.673 35.2959 225.673 35.2959C225.594 35.1082 225.64 34.9895 225.888 34.8121C225.991 34.7464 226.01 34.6972 226.184 34.6853C226.27 34.6527 226.247 34.7025 226.401 34.6473C226.49 34.6153 226.49 34.6381 226.669 34.6228C226.711 34.595 226.768 34.5852 226.846 34.56C226.988 34.5131 227.127 34.4609 227.127 34.4609C227.127 34.4609 227.163 34.4246 227.3 34.4376C227.415 34.3902 227.534 34.3198 227.595 34.2983C227.579 34.1151 227.599 34.1237 227.684 34.0499C227.79 33.9587 227.809 33.9736 227.888 34.0301C227.921 34.0109 227.937 34.0044 227.933 33.9765C227.92 33.8811 227.839 33.8362 227.863 33.6258C227.827 33.5416 227.773 33.4376 227.785 33.3748C227.802 33.307 227.819 33.2743 227.86 33.2528C227.904 33.2295 227.918 33.2609 227.941 33.2872C227.983 33.3359 228.017 33.4799 228.017 33.4799C228.032 33.6425 228.082 33.8529 228.243 33.7341C228.338 33.6381 228.356 33.3822 228.549 33.437L228.687 33.5568C228.804 33.4468 228.81 33.4468 228.88 33.4026C228.88 33.4026 228.77 33.2918 228.866 33.2056C228.932 33.1471 229.011 33.1052 229.152 32.949C229.539 32.5214 229.738 32.3324 230.156 31.9877C230.991 31.301 231.941 30.8194 232.545 30.5799C232.742 30.33 232.933 30.164 233.37 30.1221C233.889 29.2452 234.884 28.4621 235.112 28.3372C235.298 28.0005 235.379 28.0363 235.622 27.9687C235.814 27.8143 235.858 27.8143 235.944 27.6531C236.028 27.3203 235.751 26.4311 236.458 26.3862C236.608 26.1741 236.57 26.225 236.738 26.0244C236.625 25.745 236.578 25.5114 236.547 25.31C236.541 25.2867 236.266 25.0929 236.345 24.8399C236.228 24.7008 236.009 24.3763 235.941 24.2243C235.91 24.225 235.884 24.2132 235.849 24.2085C235.814 24.2028 235.769 24.2048 235.719 24.2005C235.609 24.4846 235.489 24.5057 235.294 24.5684C234.944 25.3133 234.821 25.6285 233.832 26.2443C233.44 26.6838 233.314 27.1735 233.316 27.1662C233.248 27.3113 233.272 27.5145 233.308 27.6234C233.256 27.7846 233.27 27.8006 233.27 27.8006C233.291 27.8615 233.347 27.9421 233.416 27.9592C233.535 27.9906 233.654 27.9856 233.647 28.1179C233.631 28.2834 233.414 28.2563 233.311 28.2378C232.915 28.175 233.04 27.9172 232.787 28.0033C232.594 28.1301 232.521 28.5042 232.205 28.4557C232.163 28.428 232.176 28.3462 232.204 28.2872C232.248 28.1949 232.327 28.1185 232.28 28.0839C232.074 28.1499 231.868 28.217 231.663 28.2852C231.469 28.3381 231.256 28.2415 231.447 28.114C231.536 28.0796 231.663 28.0364 231.819 27.9363C231.819 27.9363 231.899 27.8267 231.745 27.8815C231.576 27.9418 231.328 27.9793 231.149 27.9597C231.149 27.9597 230.78 27.9111 230.732 27.882C230.684 27.853 230.641 27.7387 230.756 27.7394C230.903 27.7407 231.269 27.6975 231.554 27.6218C231.691 27.5683 231.952 27.4139 232.098 27.3412C232.098 27.3412 232.257 27.1099 232.344 27.0643C232.49 26.8965 232.613 26.7973 232.742 26.6256C232.869 26.3652 232.999 25.9531 233.417 25.315C233.61 25.0208 233.85 24.6782 234.152 24.3718C234.152 24.3718 234.23 23.8815 234.623 23.5326C234.71 23.3283 234.842 23.0877 234.972 22.865C235.022 22.7794 235.07 22.705 235.118 22.6238C235.24 22.4324 235.368 22.0762 235.843 22.0201C235.843 22.0201 236.046 21.87 236.124 21.7634C236.246 21.6594 236.218 21.4976 236.317 21.3837C236.166 21.2361 235.779 20.9585 235.741 20.5727C235.701 20.1636 235.847 19.8269 236.095 19.5778C236.369 19.3034 236.658 19.1662 237.009 19.1871C237.448 19.2523 237.531 19.3975 237.671 19.5415C237.805 19.6781 237.855 19.5901 237.911 19.7501C238.279 19.848 238.259 19.8049 238.256 20.0756C238.313 20.1519 238.407 20.2227 238.406 20.3808C238.53 20.1242 238.554 20.0769 238.885 19.7945C238.963 19.565 239.016 19.3392 239.085 19.1097C239.149 18.8974 239.229 18.679 239.291 18.5146C239.225 18.0507 239.361 17.9738 239.541 17.5671C239.509 17.5111 239.516 17.4952 239.529 17.4034C239.599 17.1346 239.709 16.7789 239.774 16.5469C239.774 16.5469 239.796 16.4546 239.891 16.4478C239.974 16.1543 240.097 15.6079 240.118 15.4966C240.203 15.1895 240.148 15.091 240.083 14.9181C240.062 14.8615 240.072 14.7809 240.036 14.7181C239.933 14.5391 239.822 14.3064 239.747 14.1403C239.699 14.0345 239.622 13.6357 239.622 13.6357C239.556 13.4321 239.613 13.6358 239.613 13.6358Z" fill="black"/>
</g>
<path d="M222.055 58.9199V58.8662H223.178V58.9248C223.178 59.3577 223.292 59.6833 223.52 59.9014C223.747 60.1195 224.063 60.2285 224.467 60.2285C224.874 60.2285 225.191 60.1081 225.419 59.8672C225.647 59.623 225.761 59.2682 225.761 58.8027V53.8906H226.884V58.7881C226.884 59.5173 226.662 60.0934 226.22 60.5166C225.777 60.9365 225.194 61.1465 224.472 61.1465C223.749 61.1465 223.165 60.9495 222.719 60.5557C222.276 60.1618 222.055 59.6165 222.055 58.9199ZM228.041 58.4414V58.2852C228.041 57.4844 228.28 56.8333 228.759 56.332C229.237 55.8307 229.874 55.5801 230.668 55.5801C231.462 55.5801 232.099 55.8307 232.577 56.332C233.056 56.8333 233.295 57.4844 233.295 58.2852V58.4414C233.295 59.2389 233.056 59.89 232.577 60.3945C232.099 60.8958 231.462 61.1465 230.668 61.1465C229.874 61.1465 229.237 60.8958 228.759 60.3945C228.28 59.89 228.041 59.2389 228.041 58.4414ZM229.159 58.2754V58.4512C229.159 58.972 229.286 59.4082 229.54 59.7598C229.794 60.1081 230.17 60.2822 230.668 60.2822C231.166 60.2822 231.542 60.1081 231.796 59.7598C232.053 59.4082 232.182 58.9704 232.182 58.4463V58.2754C232.182 57.7546 232.053 57.32 231.796 56.9717C231.542 56.6201 231.166 56.4443 230.668 56.4443C230.17 56.4443 229.794 56.6201 229.54 56.9717C229.286 57.32 229.159 57.7546 229.159 58.2754ZM234.423 61V55.7266H235.424L235.463 56.3809H235.492C235.622 56.166 235.795 55.9788 236.01 55.8193C236.228 55.6598 236.487 55.5801 236.786 55.5801C236.858 55.5801 236.933 55.5882 237.011 55.6045C237.092 55.6208 237.147 55.6354 237.177 55.6484V56.6348C237.112 56.6217 237.043 56.612 236.972 56.6055C236.9 56.599 236.82 56.5957 236.732 56.5957C236.436 56.5957 236.184 56.6722 235.976 56.8252C235.767 56.9782 235.613 57.167 235.512 57.3916V61H234.423ZM237.641 58.4414V58.2852C237.641 57.5137 237.849 56.8789 238.266 56.3809C238.686 55.8796 239.244 55.6289 239.94 55.6289C240.315 55.6289 240.634 55.6924 240.897 55.8193C241.164 55.9463 241.376 56.1156 241.532 56.3271V53.5049H242.621V61H241.615L241.576 60.3311H241.552C241.418 60.5459 241.21 60.7282 240.927 60.8779C240.644 61.0244 240.315 61.0977 239.94 61.0977C239.241 61.0977 238.682 60.847 238.266 60.3457C237.849 59.8444 237.641 59.2096 237.641 58.4414ZM238.759 58.4512C238.759 58.9557 238.874 59.3789 239.105 59.7207C239.337 60.0625 239.698 60.2334 240.189 60.2334C240.518 60.2334 240.798 60.1471 241.029 59.9746C241.26 59.7988 241.428 59.597 241.532 59.3691V57.3574C241.428 57.1296 241.26 56.9294 241.029 56.7568C240.801 56.5811 240.521 56.4932 240.189 56.4932C239.698 56.4932 239.337 56.6641 239.105 57.0059C238.874 57.3477 238.759 57.7708 238.759 58.2754V58.4512ZM243.759 59.4473C243.759 58.9036 243.983 58.4821 244.433 58.1826C244.882 57.8831 245.451 57.7334 246.142 57.7334H247.333V57.3477C247.333 57.0677 247.252 56.8398 247.089 56.6641C246.926 56.485 246.648 56.3955 246.254 56.3955C245.857 56.3955 245.574 56.4736 245.404 56.6299C245.235 56.7861 245.15 56.9668 245.15 57.1719V57.2061H244.062V57.1719C244.062 56.7422 244.262 56.3695 244.662 56.0537C245.066 55.738 245.606 55.5801 246.283 55.5801C246.96 55.5801 247.486 55.7282 247.86 56.0244C248.235 56.3174 248.422 56.7585 248.422 57.3477V59.8281C248.422 60.0397 248.438 60.2399 248.471 60.4287C248.507 60.6175 248.554 60.7819 248.612 60.9219V61H247.558C247.512 60.9186 247.47 60.8112 247.431 60.6777C247.395 60.5443 247.37 60.4141 247.357 60.2871C247.234 60.4987 247.027 60.6875 246.737 60.8535C246.451 61.0163 246.083 61.0977 245.634 61.0977C245.113 61.0977 244.67 60.9577 244.306 60.6777C243.941 60.3945 243.759 59.9844 243.759 59.4473ZM244.848 59.3936C244.848 59.6702 244.932 59.8883 245.102 60.0479C245.274 60.2041 245.539 60.2822 245.897 60.2822C246.265 60.2822 246.596 60.1634 246.889 59.9258C247.185 59.6882 247.333 59.4342 247.333 59.1641V58.4707H246.254C245.792 58.4707 245.442 58.5537 245.204 58.7197C244.966 58.8857 244.848 59.1104 244.848 59.3936ZM249.853 61V55.7266H250.854L250.893 56.3955H250.922C251.111 56.1514 251.347 55.9626 251.63 55.8291C251.913 55.6956 252.227 55.6289 252.572 55.6289C253.129 55.6289 253.573 55.7852 253.905 56.0977C254.237 56.4102 254.403 56.9375 254.403 57.6797V61H253.314V57.665C253.314 57.2516 253.22 56.957 253.031 56.7812C252.846 56.6022 252.582 56.5127 252.24 56.5127C251.947 56.5127 251.688 56.5908 251.464 56.7471C251.243 56.9001 251.067 57.1019 250.937 57.3525V61H249.853Z" fill="#2A2A2A"/>
<path d="M214.5 118C214.5 104.745 225.245 94 238.5 94C251.755 94 262.5 104.745 262.5 118C262.5 131.255 251.755 142 238.5 142C225.245 142 214.5 131.255 214.5 118Z" fill="#F9F9F9"/>
<g clip-path="url(#clip5_2470_15773)">
<path fill-rule="evenodd" clip-rule="evenodd" d="M236.501 117.548L233.823 117.643L236.366 117.784L236.501 117.548ZM236.181 118.11L233.496 118.206L236.049 118.348L236.181 118.11ZM235.86 118.678L233.179 118.772L235.728 118.914L235.86 118.678ZM235.546 119.243L232.862 119.338L235.408 119.48L235.546 119.243ZM238.828 114.707L235.41 114.829L238.838 115.019L238.828 114.707ZM238.807 114.148L235.736 114.256L238.816 114.433L238.807 114.148ZM238.785 113.61L236.049 113.7L238.798 113.852L238.785 113.61ZM238.766 113.056L236.368 113.137L238.776 113.279L238.766 113.056ZM238.751 112.609H236.665L238.754 112.72L238.751 112.609ZM235.223 119.807L232.545 119.904H235.168L235.223 119.807Z" fill="#1D2939"/>
<path fill-rule="evenodd" clip-rule="evenodd" d="M244.299 112.625H240.439L240.33 112.818L242.261 112.921C242.284 112.921 242.284 112.953 242.251 112.953L240.217 113.021L240.021 113.364L241.939 113.478C241.965 113.481 241.959 113.516 241.936 113.516L239.898 113.583L239.709 113.912L241.624 114.018C241.666 114.022 241.666 114.057 241.624 114.057L239.59 114.128L239.397 114.472L241.305 114.582C241.347 114.585 241.344 114.624 241.305 114.624L239.271 114.696L239.075 115.036L240.986 115.142C241.015 115.145 241.019 115.181 240.98 115.181L235.118 115.377L240.681 115.686C240.716 115.686 240.713 115.731 240.674 115.731L234.803 115.94L240.365 116.249C240.391 116.249 240.397 116.291 240.359 116.291L234.478 116.503L240.04 116.813C240.063 116.816 240.085 116.858 240.037 116.861L234.166 117.07L239.728 117.379C239.744 117.382 239.76 117.424 239.721 117.424L236.767 117.529L236.776 117.796L239.409 117.942C239.428 117.945 239.438 117.984 239.403 117.984L236.786 118.077L236.799 118.375L239.084 118.502C239.107 118.505 239.116 118.551 239.078 118.551L236.812 118.63L236.821 118.957L238.769 119.066C238.791 119.069 238.798 119.111 238.759 119.111L236.831 119.179L236.844 119.54L238.453 119.629C238.476 119.632 238.476 119.671 238.444 119.671L236.85 119.729L236.857 119.883H242.052C243.43 119.883 244.666 118.879 244.897 118.081C245.129 117.282 245.129 116.561 244.022 116.201C244.64 116.059 245.715 115.362 245.928 114.398C246.12 113.523 245.799 112.628 244.299 112.625ZM241.686 118.215H240.089L240.99 116.618H242.175C243.398 116.618 242.806 118.215 241.686 118.215ZM243.752 114.79C243.7 114.983 243.314 115.472 242.825 115.472H241.64L242.4 114.133H243.005C243.777 114.159 243.803 114.597 243.752 114.79ZM250.147 122.197C250.147 121.578 249.632 121.06 249.014 121.06C248.379 121.06 247.861 121.586 247.861 122.233C247.86 122.385 247.89 122.536 247.948 122.677C248.006 122.817 248.091 122.945 248.198 123.053C248.306 123.16 248.434 123.245 248.574 123.303C248.715 123.361 248.866 123.391 249.018 123.39C249.488 123.39 249.934 123.069 250.066 122.631H249.48C249.363 122.816 249.211 122.9 249.002 122.9C248.736 122.9 248.5 122.719 248.423 122.462H250.118C250.139 122.338 250.147 122.277 250.147 122.197ZM248.407 122.042C248.484 121.741 248.725 121.548 249.022 121.548C249.319 121.548 249.552 121.737 249.625 122.042H248.407ZM242.531 121.167V121.348C242.362 121.167 242.118 121.064 241.857 121.064C241.278 121.064 240.785 121.558 240.785 122.201C240.785 122.807 241.222 123.351 241.868 123.351C242.154 123.351 242.371 123.285 242.575 123.052V123.338H243.066V121.167H242.531ZM241.932 122.891C241.754 122.891 241.582 122.82 241.456 122.694C241.33 122.568 241.259 122.396 241.259 122.218C241.259 122.039 241.33 121.868 241.456 121.741C241.582 121.615 241.754 121.544 241.932 121.544C242.111 121.544 242.282 121.615 242.409 121.741C242.535 121.868 242.606 122.039 242.606 122.218C242.606 122.396 242.535 122.568 242.409 122.694C242.282 122.82 242.111 122.891 241.932 122.891ZM227.921 121.06C227.7 121.06 227.532 121.136 227.347 121.325V121.112H226.853V123.338H227.387V122.289C227.387 122.004 227.411 121.55 227.805 121.55C228.174 121.55 228.214 121.976 228.214 122.249V123.338H228.749V122.144C228.749 121.831 228.725 121.682 228.64 121.506C228.516 121.241 228.223 121.06 227.921 121.06ZM231.241 122.197C231.241 121.578 230.727 121.06 230.108 121.06C229.473 121.06 228.955 121.586 228.955 122.233C228.955 122.385 228.984 122.536 229.042 122.677C229.1 122.817 229.185 122.945 229.293 123.053C229.4 123.16 229.528 123.245 229.669 123.303C229.809 123.361 229.96 123.391 230.112 123.39C230.582 123.39 231.028 123.069 231.161 122.631H230.574C230.458 122.816 230.305 122.9 230.096 122.9C229.831 122.9 229.594 122.719 229.518 122.462H231.213C231.233 122.338 231.241 122.277 231.241 122.197ZM229.502 122.042C229.578 121.741 229.819 121.548 230.116 121.548C230.414 121.548 230.647 121.737 230.719 122.042H229.502ZM240.032 123.336H240.566V120.367H240.032V123.336ZM244.475 121.06C244.254 121.06 244.085 121.136 243.901 121.325V121.112H243.406V123.338H243.941V122.289C243.941 122.004 243.965 121.55 244.359 121.55C244.728 121.55 244.768 121.976 244.768 122.249V123.338H245.303V122.144C245.303 121.831 245.279 121.682 245.194 121.506C245.07 121.241 244.777 121.06 244.475 121.06ZM246.637 121.55C246.881 121.55 247.022 121.63 247.155 121.855H247.757C247.593 121.377 247.171 121.06 246.656 121.06C246.006 121.06 245.483 121.578 245.483 122.217C245.483 122.86 246.01 123.39 246.656 123.39C246.821 123.389 246.984 123.354 247.135 123.287C247.286 123.22 247.421 123.122 247.532 123C247.645 122.876 247.685 122.803 247.757 122.607H247.155C247.03 122.799 246.869 122.9 246.669 122.9C246.295 122.9 246.018 122.61 246.018 122.225C246.018 121.835 246.283 121.55 246.637 121.55ZM233.283 122.47L232.905 121.112H232.475L232.093 122.47L231.64 121.112H231.169L231.912 123.338H232.254L232.688 121.896L233.11 123.338H233.469L234.182 121.112H233.74L233.283 122.47ZM236.146 121.062C235.885 121.062 235.641 121.165 235.472 121.346V120.367H234.937V123.336H235.428V123.051C235.632 123.284 235.849 123.349 236.135 123.349C236.781 123.349 237.218 122.806 237.218 122.199C237.218 121.556 236.725 121.062 236.146 121.062ZM236.071 122.891C235.892 122.891 235.721 122.82 235.594 122.694C235.468 122.568 235.397 122.396 235.397 122.218C235.397 122.039 235.468 121.868 235.594 121.741C235.721 121.615 235.892 121.544 236.071 121.544C236.249 121.544 236.421 121.615 236.547 121.741C236.673 121.868 236.744 122.039 236.744 122.218C236.744 122.396 236.673 122.568 236.547 122.694C236.421 122.82 236.249 122.891 236.071 122.891ZM239.141 121.167V121.348C238.972 121.167 238.728 121.064 238.467 121.064C237.888 121.064 237.395 121.558 237.395 122.201C237.395 122.807 237.831 123.351 238.478 123.351C238.763 123.351 238.98 123.285 239.185 123.052V123.338H239.675V121.167H239.141ZM238.542 122.891C238.363 122.891 238.192 122.82 238.066 122.694C237.939 122.568 237.868 122.396 237.868 122.218C237.868 122.039 237.939 121.868 238.066 121.741C238.192 121.615 238.363 121.544 238.542 121.544C238.721 121.544 238.892 121.615 239.018 121.741C239.145 121.868 239.216 122.039 239.216 122.218C239.216 122.396 239.145 122.568 239.018 122.694C238.892 122.82 238.721 122.891 238.542 122.891Z" fill="#1D2939"/>
</g>
<path d="M208.598 155V147.891H209.799L212.929 152.739C212.991 152.837 213.051 152.943 213.109 153.057C213.168 153.171 213.217 153.271 213.256 153.359H213.3C213.293 153.258 213.287 153.132 213.28 152.979C213.277 152.826 213.275 152.699 213.275 152.598V147.891H214.311V155H213.104L209.965 150.142C209.9 150.044 209.841 149.946 209.789 149.849C209.737 149.751 209.69 149.658 209.647 149.57H209.608C209.612 149.671 209.617 149.782 209.623 149.902C209.63 150.023 209.633 150.133 209.633 150.234V155H208.598ZM215.541 152.441V152.285C215.541 151.488 215.772 150.838 216.234 150.337C216.697 149.832 217.304 149.58 218.056 149.58C218.814 149.58 219.398 149.816 219.809 150.288C220.222 150.757 220.429 151.393 220.429 152.197V152.627H216.244V151.821H219.335V151.777C219.335 151.406 219.234 151.089 219.032 150.825C218.83 150.558 218.507 150.425 218.061 150.425C217.595 150.425 217.24 150.602 216.996 150.957C216.755 151.312 216.635 151.751 216.635 152.275V152.446C216.635 152.97 216.763 153.41 217.021 153.765C217.278 154.119 217.672 154.297 218.202 154.297C218.534 154.297 218.821 154.225 219.062 154.082C219.302 153.939 219.498 153.771 219.647 153.579L220.36 154.136C220.191 154.393 219.921 154.626 219.55 154.834C219.179 155.042 218.729 155.146 218.202 155.146C217.346 155.146 216.688 154.896 216.229 154.395C215.771 153.89 215.541 153.239 215.541 152.441ZM220.912 149.727H221.996L222.904 153.027C222.943 153.158 222.978 153.283 223.007 153.403C223.036 153.521 223.061 153.643 223.08 153.77H223.109C223.129 153.639 223.152 153.516 223.178 153.398C223.207 153.281 223.243 153.158 223.285 153.027L224.369 149.727H225.385L226.479 153.027C226.521 153.158 226.557 153.283 226.586 153.403C226.615 153.521 226.64 153.643 226.659 153.77H226.688C226.708 153.643 226.732 153.521 226.762 153.403C226.791 153.283 226.824 153.158 226.859 153.027L227.763 149.727H228.739L227.133 155H226.161L225.067 151.65C225.025 151.523 224.984 151.395 224.945 151.265C224.91 151.134 224.875 151.006 224.843 150.879H224.813C224.784 151.006 224.75 151.134 224.711 151.265C224.672 151.395 224.633 151.523 224.594 151.65L223.5 155H222.519L220.912 149.727ZM232.123 155V147.891H234.647C235.419 147.891 236.026 148.042 236.469 148.345C236.911 148.647 237.133 149.124 237.133 149.775C237.133 150.166 237.034 150.485 236.835 150.732C236.636 150.977 236.391 151.149 236.098 151.25V151.27C236.456 151.37 236.749 151.562 236.977 151.846C237.208 152.126 237.323 152.493 237.323 152.949C237.323 153.6 237.092 154.105 236.63 154.463C236.168 154.821 235.557 155 234.799 155H232.123ZM233.231 154.131H234.794C235.282 154.131 235.64 154.023 235.868 153.809C236.096 153.59 236.21 153.296 236.21 152.925C236.21 152.554 236.096 152.261 235.868 152.046C235.64 151.831 235.282 151.724 234.794 151.724H233.231V154.131ZM233.231 150.874H234.647C235.132 150.874 235.482 150.781 235.697 150.596C235.912 150.407 236.02 150.143 236.02 149.805C236.02 149.469 235.912 149.212 235.697 149.033C235.482 148.851 235.131 148.76 234.643 148.76H233.231V150.874ZM238.236 153.447C238.236 152.904 238.461 152.482 238.91 152.183C239.359 151.883 239.929 151.733 240.619 151.733H241.811V151.348C241.811 151.068 241.729 150.84 241.566 150.664C241.404 150.485 241.125 150.396 240.731 150.396C240.334 150.396 240.051 150.474 239.882 150.63C239.713 150.786 239.628 150.967 239.628 151.172V151.206H238.539V151.172C238.539 150.742 238.739 150.369 239.14 150.054C239.543 149.738 240.084 149.58 240.761 149.58C241.438 149.58 241.964 149.728 242.338 150.024C242.712 150.317 242.899 150.758 242.899 151.348V153.828C242.899 154.04 242.916 154.24 242.948 154.429C242.984 154.618 243.031 154.782 243.09 154.922V155H242.035C241.99 154.919 241.947 154.811 241.908 154.678C241.872 154.544 241.848 154.414 241.835 154.287C241.711 154.499 241.505 154.688 241.215 154.854C240.928 155.016 240.561 155.098 240.111 155.098C239.59 155.098 239.148 154.958 238.783 154.678C238.419 154.395 238.236 153.984 238.236 153.447ZM239.325 153.394C239.325 153.67 239.41 153.888 239.579 154.048C239.752 154.204 240.017 154.282 240.375 154.282C240.743 154.282 241.073 154.163 241.366 153.926C241.662 153.688 241.811 153.434 241.811 153.164V152.471H240.731C240.269 152.471 239.919 152.554 239.682 152.72C239.444 152.886 239.325 153.11 239.325 153.394ZM244.364 155V147.505H245.453V155H244.364ZM246.635 153.447C246.635 152.904 246.859 152.482 247.309 152.183C247.758 151.883 248.327 151.733 249.018 151.733H250.209V151.348C250.209 151.068 250.128 150.84 249.965 150.664C249.802 150.485 249.524 150.396 249.13 150.396C248.733 150.396 248.45 150.474 248.28 150.63C248.111 150.786 248.026 150.967 248.026 151.172V151.206H246.938V151.172C246.938 150.742 247.138 150.369 247.538 150.054C247.942 149.738 248.482 149.58 249.159 149.58C249.836 149.58 250.362 149.728 250.736 150.024C251.111 150.317 251.298 150.758 251.298 151.348V153.828C251.298 154.04 251.314 154.24 251.347 154.429C251.382 154.618 251.43 154.782 251.488 154.922V155H250.434C250.388 154.919 250.346 154.811 250.307 154.678C250.271 154.544 250.246 154.414 250.233 154.287C250.11 154.499 249.903 154.688 249.613 154.854C249.327 155.016 248.959 155.098 248.51 155.098C247.989 155.098 247.546 154.958 247.182 154.678C246.817 154.395 246.635 153.984 246.635 153.447ZM247.724 153.394C247.724 153.67 247.808 153.888 247.978 154.048C248.15 154.204 248.415 154.282 248.773 154.282C249.141 154.282 249.472 154.163 249.765 153.926C250.061 153.688 250.209 153.434 250.209 153.164V152.471H249.13C248.668 152.471 248.318 152.554 248.08 152.72C247.842 152.886 247.724 153.11 247.724 153.394ZM252.729 155V149.727H253.729L253.769 150.396H253.798C253.987 150.151 254.223 149.963 254.506 149.829C254.789 149.696 255.103 149.629 255.448 149.629C256.005 149.629 256.449 149.785 256.781 150.098C257.113 150.41 257.279 150.938 257.279 151.68V155H256.19V151.665C256.19 151.252 256.096 150.957 255.907 150.781C255.722 150.602 255.458 150.513 255.116 150.513C254.823 150.513 254.564 150.591 254.34 150.747C254.118 150.9 253.943 151.102 253.812 151.353V155H252.729ZM258.349 152.441V152.285C258.349 151.484 258.578 150.833 259.037 150.332C259.499 149.831 260.131 149.58 260.932 149.58C261.677 149.58 262.243 149.771 262.631 150.151C263.018 150.532 263.214 150.959 263.217 151.431V151.465H262.152V151.436C262.152 151.169 262.055 150.936 261.859 150.737C261.667 150.535 261.356 150.435 260.927 150.435C260.429 150.435 260.061 150.612 259.823 150.967C259.586 151.318 259.467 151.755 259.467 152.275V152.451C259.467 152.972 259.584 153.41 259.818 153.765C260.056 154.116 260.425 154.292 260.927 154.292C261.356 154.292 261.667 154.191 261.859 153.989C262.055 153.787 262.152 153.555 262.152 153.291V153.262H263.217V153.291C263.217 153.766 263.021 154.194 262.631 154.575C262.243 154.956 261.677 155.146 260.932 155.146C260.131 155.146 259.499 154.896 259.037 154.395C258.578 153.893 258.349 153.242 258.349 152.441ZM263.969 152.441V152.285C263.969 151.488 264.2 150.838 264.662 150.337C265.124 149.832 265.731 149.58 266.483 149.58C267.242 149.58 267.826 149.816 268.236 150.288C268.65 150.757 268.856 151.393 268.856 152.197V152.627H264.672V151.821H267.763V151.777C267.763 151.406 267.662 151.089 267.46 150.825C267.258 150.558 266.934 150.425 266.488 150.425C266.023 150.425 265.668 150.602 265.424 150.957C265.183 151.312 265.062 151.751 265.062 152.275V152.446C265.062 152.97 265.191 153.41 265.448 153.765C265.705 154.119 266.099 154.297 266.63 154.297C266.962 154.297 267.248 154.225 267.489 154.082C267.73 153.939 267.925 153.771 268.075 153.579L268.788 154.136C268.619 154.393 268.349 154.626 267.978 154.834C267.606 155.042 267.157 155.146 266.63 155.146C265.774 155.146 265.116 154.896 264.657 154.395C264.198 153.89 263.969 153.239 263.969 152.441Z" fill="#2A2A2A"/>
<path d="M322.271 23.7292C322.271 10.6239 332.894 0 346 0C359.105 0 369.729 10.6239 369.729 23.7292C369.729 36.8344 359.105 47.4583 346 47.4583C332.894 47.4583 322.271 36.8344 322.271 23.7292Z" fill="#F9F9F9"/>
<g clip-path="url(#clip6_2470_15773)">
<path d="M347.465 29.1048C347.271 29.1048 347.085 29.0276 346.947 28.8901C346.81 28.7526 346.732 28.5662 346.732 28.3717V19.5749C346.732 19.3804 346.81 19.194 346.947 19.0565C347.085 18.919 347.271 18.8418 347.465 18.8418C347.66 18.8418 347.846 18.919 347.984 19.0565C348.121 19.194 348.199 19.3804 348.199 19.5749V28.3717C348.199 28.5662 348.121 28.7526 347.984 28.8901C347.846 29.0276 347.66 29.1048 347.465 29.1048Z" fill="black"/>
<path d="M353.819 24.7064H347.789C347.595 24.7064 347.408 24.6291 347.271 24.4917C347.133 24.3542 347.056 24.1677 347.056 23.9733C347.056 23.7789 347.133 23.5924 347.271 23.4549C347.408 23.3175 347.595 23.2402 347.789 23.2402H353.819C354.627 23.2402 355.285 22.5824 355.285 21.7741C355.285 20.9658 354.627 20.3079 353.819 20.3079H347.465C347.271 20.3079 347.085 20.2307 346.947 20.0932C346.81 19.9558 346.732 19.7693 346.732 19.5749C346.732 19.3804 346.81 19.194 346.947 19.0565C347.085 18.919 347.271 18.8418 347.465 18.8418H353.819C355.435 18.8418 356.751 20.1574 356.751 21.7741C356.751 23.3908 355.435 24.7064 353.819 24.7064Z" fill="black"/>
<path d="M354.797 29.1048H347.545C347.351 29.1048 347.164 29.0276 347.027 28.8901C346.889 28.7526 346.812 28.5662 346.812 28.3717C346.812 28.1773 346.889 27.9909 347.027 27.8534C347.164 27.7159 347.351 27.6387 347.545 27.6387H354.797C355.605 27.6387 356.263 26.9809 356.263 26.1725C356.263 25.3642 355.605 24.7064 354.797 24.7064H347.466C347.272 24.7064 347.085 24.6291 346.948 24.4917C346.81 24.3542 346.733 24.1677 346.733 23.9733C346.733 23.7789 346.81 23.5924 346.948 23.4549C347.085 23.3175 347.272 23.2402 347.466 23.2402H354.797C356.414 23.2402 357.729 24.5559 357.729 26.1725C357.729 27.7892 356.414 29.1048 354.797 29.1048ZM344.534 29.1048C344.339 29.1048 344.153 29.0276 344.015 28.8901C343.878 28.7526 343.801 28.5662 343.801 28.3717V19.5749C343.801 19.3804 343.878 19.194 344.015 19.0565C344.153 18.919 344.339 18.8418 344.534 18.8418C344.728 18.8418 344.915 18.919 345.052 19.0565C345.19 19.194 345.267 19.3804 345.267 19.5749V28.3717C345.267 28.5662 345.19 28.7526 345.052 28.8901C344.915 29.0276 344.728 29.1048 344.534 29.1048Z" fill="black"/>
<path d="M344.209 24.7064H338.179C336.563 24.7064 335.247 23.3908 335.247 21.7741C335.247 20.1574 336.563 18.8418 338.179 18.8418H344.533C344.727 18.8418 344.914 18.919 345.051 19.0565C345.188 19.194 345.266 19.3804 345.266 19.5749C345.266 19.7693 345.188 19.9558 345.051 20.0932C344.914 20.2307 344.727 20.3079 344.533 20.3079H338.179C337.371 20.3079 336.713 20.9658 336.713 21.7741C336.713 22.5824 337.371 23.2402 338.179 23.2402H344.209C344.404 23.2402 344.59 23.3175 344.727 23.4549C344.865 23.5924 344.942 23.7789 344.942 23.9733C344.942 24.1677 344.865 24.3542 344.727 24.4917C344.59 24.6291 344.404 24.7064 344.209 24.7064Z" fill="black"/>
<path d="M344.454 29.1035H337.203C335.586 29.1035 334.271 27.7879 334.271 26.1712C334.271 24.5546 335.586 23.239 337.203 23.239H344.534C344.728 23.239 344.914 23.3162 345.052 23.4537C345.189 23.5911 345.267 23.7776 345.267 23.972C345.267 24.1665 345.189 24.3529 345.052 24.4904C344.914 24.6279 344.728 24.7051 344.534 24.7051H337.203C336.394 24.7051 335.737 25.3629 335.737 26.1712C335.737 26.9796 336.394 27.6374 337.203 27.6374H344.454C344.649 27.6374 344.835 27.7146 344.973 27.8521C345.11 27.9896 345.187 28.176 345.187 28.3705C345.187 28.5649 345.11 28.7514 344.973 28.8888C344.835 29.0263 344.649 29.1035 344.454 29.1035ZM343.067 23.239C342.894 23.2379 342.726 23.1753 342.595 23.0624C342.463 22.9496 342.375 22.7937 342.347 22.6224C342.32 22.4511 342.354 22.2755 342.443 22.1268C342.532 21.9781 342.671 21.8658 342.836 21.81L348.7 19.8551C348.882 19.8024 349.078 19.8222 349.246 19.9105C349.414 19.9987 349.541 20.1485 349.601 20.3284C349.661 20.5083 349.649 20.7045 349.567 20.8757C349.486 21.0469 349.341 21.18 349.164 21.247L343.299 23.2018C343.224 23.226 343.146 23.2385 343.067 23.239Z" fill="black"/>
<path d="M343.067 25.6843C342.894 25.6832 342.726 25.6206 342.594 25.5078C342.463 25.3949 342.375 25.239 342.347 25.0677C342.32 24.8964 342.353 24.7208 342.443 24.5721C342.532 24.4234 342.671 24.3111 342.836 24.2553L348.7 22.3004C348.882 22.2477 349.078 22.2675 349.246 22.3558C349.414 22.444 349.541 22.5938 349.601 22.7737C349.661 22.9536 349.649 23.1498 349.567 23.321C349.486 23.4922 349.341 23.6253 349.164 23.6923L343.299 25.6471C343.224 25.6713 343.146 25.6838 343.067 25.6843ZM343.067 28.1278C342.894 28.1267 342.726 28.0642 342.594 27.9513C342.463 27.8385 342.375 27.6826 342.347 27.5113C342.32 27.34 342.353 27.1644 342.443 27.0157C342.532 26.867 342.671 26.7547 342.836 26.6988L348.7 24.744C348.792 24.7136 348.888 24.7014 348.984 24.7083C349.08 24.7152 349.174 24.7409 349.26 24.784C349.346 24.8271 349.423 24.8868 349.486 24.9596C349.549 25.0324 349.597 25.1169 349.628 25.2083C349.658 25.2997 349.67 25.3961 349.663 25.4922C349.657 25.5883 349.631 25.6821 349.588 25.7682C349.545 25.8543 349.485 25.9311 349.412 25.9942C349.339 26.0573 349.255 26.1054 349.164 26.1358L343.299 28.0907C343.224 28.1149 343.146 28.1274 343.067 28.1278Z" fill="black"/>
</g>
<path d="M320.609 60.4585V53.3491H323.134C323.905 53.3491 324.512 53.5005 324.955 53.8032C325.398 54.106 325.619 54.5828 325.619 55.2339C325.619 55.6245 325.52 55.9435 325.321 56.1909C325.123 56.4351 324.877 56.6076 324.584 56.7085V56.728C324.942 56.8289 325.235 57.021 325.463 57.3042C325.694 57.5841 325.81 57.952 325.81 58.4077C325.81 59.0588 325.578 59.5633 325.116 59.9214C324.654 60.2795 324.044 60.4585 323.285 60.4585H320.609ZM321.718 59.5894H323.28C323.769 59.5894 324.127 59.4819 324.354 59.2671C324.582 59.049 324.696 58.7544 324.696 58.3833C324.696 58.0122 324.582 57.7192 324.354 57.5044C324.127 57.2896 323.769 57.1821 323.28 57.1821H321.718V59.5894ZM321.718 56.3325H323.134C323.619 56.3325 323.969 56.2397 324.184 56.0542C324.398 55.8654 324.506 55.6017 324.506 55.2632C324.506 54.9279 324.398 54.6707 324.184 54.4917C323.969 54.3094 323.617 54.2183 323.129 54.2183H321.718V56.3325ZM326.723 58.9058C326.723 58.3621 326.947 57.9406 327.396 57.6411C327.846 57.3416 328.415 57.1919 329.105 57.1919H330.297V56.8062C330.297 56.5262 330.215 56.2983 330.053 56.1226C329.89 55.9435 329.612 55.854 329.218 55.854C328.821 55.854 328.537 55.9321 328.368 56.0884C328.199 56.2446 328.114 56.4253 328.114 56.6304V56.6646H327.025V56.6304C327.025 56.2007 327.226 55.828 327.626 55.5122C328.03 55.1965 328.57 55.0386 329.247 55.0386C329.924 55.0386 330.45 55.1867 330.824 55.4829C331.199 55.7759 331.386 56.217 331.386 56.8062V59.2866C331.386 59.4982 331.402 59.6984 331.435 59.8872C331.47 60.076 331.518 60.2404 331.576 60.3804V60.4585H330.521C330.476 60.3771 330.434 60.2697 330.395 60.1362C330.359 60.0028 330.334 59.8726 330.321 59.7456C330.198 59.9572 329.991 60.146 329.701 60.312C329.415 60.4748 329.047 60.5562 328.598 60.5562C328.077 60.5562 327.634 60.4162 327.27 60.1362C326.905 59.853 326.723 59.4429 326.723 58.9058ZM327.812 58.8521C327.812 59.1287 327.896 59.3468 328.065 59.5063C328.238 59.6626 328.503 59.7407 328.861 59.7407C329.229 59.7407 329.56 59.6219 329.853 59.3843C330.149 59.1466 330.297 58.8927 330.297 58.6226V57.9292H329.218C328.756 57.9292 328.406 58.0122 328.168 58.1782C327.93 58.3442 327.812 58.5688 327.812 58.8521ZM332.851 60.4585V52.9634H333.939V60.4585H332.851ZM335.102 57.8999V57.7437C335.102 56.9461 335.333 56.2967 335.795 55.7954C336.257 55.2909 336.864 55.0386 337.616 55.0386C338.375 55.0386 338.959 55.2746 339.369 55.7466C339.783 56.2153 339.989 56.8517 339.989 57.6558V58.0854H335.805V57.2798H338.896V57.2358C338.896 56.8647 338.795 56.5474 338.593 56.2837C338.391 56.0168 338.067 55.8833 337.621 55.8833C337.156 55.8833 336.801 56.0607 336.557 56.4155C336.316 56.7703 336.195 57.2098 336.195 57.7339V57.9048C336.195 58.4289 336.324 58.8683 336.581 59.2231C336.838 59.578 337.232 59.7554 337.763 59.7554C338.095 59.7554 338.381 59.6838 338.622 59.5405C338.863 59.3973 339.058 59.2297 339.208 59.0376L339.921 59.5942C339.752 59.8514 339.481 60.0841 339.11 60.2925C338.739 60.5008 338.29 60.605 337.763 60.605C336.907 60.605 336.249 60.3543 335.79 59.853C335.331 59.3485 335.102 58.6974 335.102 57.8999ZM341.068 60.4585V55.1851H342.069L342.108 55.854H342.138C342.326 55.6099 342.562 55.4211 342.846 55.2876C343.129 55.1541 343.443 55.0874 343.788 55.0874C344.345 55.0874 344.789 55.2437 345.121 55.5562C345.453 55.8687 345.619 56.396 345.619 57.1382V60.4585H344.53V57.1235C344.53 56.7101 344.436 56.4155 344.247 56.2397C344.062 56.0607 343.798 55.9712 343.456 55.9712C343.163 55.9712 342.904 56.0493 342.68 56.2056C342.458 56.3586 342.283 56.5604 342.152 56.811V60.4585H341.068ZM346.688 57.8999V57.7437C346.688 56.9429 346.918 56.2918 347.377 55.7905C347.839 55.2892 348.471 55.0386 349.271 55.0386C350.017 55.0386 350.583 55.229 350.971 55.6099C351.358 55.9907 351.553 56.4172 351.557 56.8892V56.9233H350.492V56.894C350.492 56.6271 350.395 56.3944 350.199 56.1958C350.007 55.994 349.696 55.8931 349.267 55.8931C348.769 55.8931 348.401 56.0705 348.163 56.4253C347.925 56.7769 347.807 57.2131 347.807 57.7339V57.9097C347.807 58.4305 347.924 58.8683 348.158 59.2231C348.396 59.5747 348.765 59.7505 349.267 59.7505C349.696 59.7505 350.007 59.6496 350.199 59.4478C350.395 59.2459 350.492 59.0132 350.492 58.7495V58.7202H351.557V58.7495C351.557 59.2248 351.361 59.6528 350.971 60.0337C350.583 60.4146 350.017 60.605 349.271 60.605C348.471 60.605 347.839 60.3543 347.377 59.853C346.918 59.3517 346.688 58.7007 346.688 57.8999ZM352.65 60.4585V55.1851H353.739V60.4585H352.65ZM352.548 53.6909C352.548 53.5216 352.603 53.3784 352.714 53.2612C352.825 53.144 352.984 53.0854 353.192 53.0854C353.401 53.0854 353.56 53.144 353.671 53.2612C353.785 53.3784 353.842 53.5233 353.842 53.6958C353.842 53.8683 353.785 54.0132 353.671 54.1304C353.56 54.2476 353.401 54.3062 353.192 54.3062C352.984 54.3062 352.825 54.2476 352.714 54.1304C352.603 54.0132 352.548 53.8667 352.548 53.6909ZM354.926 58.9058C354.926 58.3621 355.15 57.9406 355.6 57.6411C356.049 57.3416 356.618 57.1919 357.309 57.1919H358.5V56.8062C358.5 56.5262 358.419 56.2983 358.256 56.1226C358.093 55.9435 357.815 55.854 357.421 55.854C357.024 55.854 356.741 55.9321 356.571 56.0884C356.402 56.2446 356.317 56.4253 356.317 56.6304V56.6646H355.229V56.6304C355.229 56.2007 355.429 55.828 355.829 55.5122C356.233 55.1965 356.773 55.0386 357.45 55.0386C358.127 55.0386 358.653 55.1867 359.027 55.4829C359.402 55.7759 359.589 56.217 359.589 56.8062V59.2866C359.589 59.4982 359.605 59.6984 359.638 59.8872C359.674 60.076 359.721 60.2404 359.779 60.3804V60.4585H358.725C358.679 60.3771 358.637 60.2697 358.598 60.1362C358.562 60.0028 358.537 59.8726 358.524 59.7456C358.401 59.9572 358.194 60.146 357.904 60.312C357.618 60.4748 357.25 60.5562 356.801 60.5562C356.28 60.5562 355.837 60.4162 355.473 60.1362C355.108 59.853 354.926 59.4429 354.926 58.9058ZM356.015 58.8521C356.015 59.1287 356.099 59.3468 356.269 59.5063C356.441 59.6626 356.706 59.7407 357.064 59.7407C357.432 59.7407 357.763 59.6219 358.056 59.3843C358.352 59.1466 358.5 58.8927 358.5 58.6226V57.9292H357.421C356.959 57.9292 356.609 58.0122 356.371 58.1782C356.133 58.3442 356.015 58.5688 356.015 58.8521ZM360.951 61.8452L361.522 61.0688C361.682 61.2316 361.905 61.3765 362.191 61.5034C362.478 61.6304 362.797 61.6938 363.148 61.6938C363.598 61.6938 363.952 61.5701 364.213 61.3228C364.473 61.0786 364.604 60.7319 364.604 60.2827V59.853C364.447 60.0679 364.236 60.2388 363.969 60.3657C363.702 60.4927 363.381 60.5562 363.007 60.5562C362.313 60.5562 361.757 60.3071 361.337 59.8091C360.92 59.3078 360.712 58.6714 360.712 57.8999V57.7437C360.712 56.9722 360.92 56.3374 361.337 55.8394C361.757 55.3381 362.313 55.0874 363.007 55.0874C363.381 55.0874 363.71 55.1623 363.993 55.312C364.28 55.4585 364.49 55.6392 364.623 55.854H364.647L364.687 55.1851H365.692V60.2778C365.692 61.02 365.46 61.5897 364.994 61.9868C364.529 62.3872 363.926 62.5874 363.188 62.5874C362.729 62.5874 362.305 62.5174 361.918 62.3774C361.534 62.2375 361.212 62.0601 360.951 61.8452ZM361.83 57.9097C361.83 58.4142 361.946 58.8374 362.177 59.1792C362.408 59.521 362.771 59.6919 363.266 59.6919C363.594 59.6919 363.873 59.604 364.101 59.4282C364.332 59.2524 364.499 59.0522 364.604 58.8276V56.8208C364.499 56.5897 364.332 56.3879 364.101 56.2153C363.869 56.0396 363.59 55.9517 363.261 55.9517C362.769 55.9517 362.408 56.1226 362.177 56.4644C361.946 56.8062 361.83 57.2293 361.83 57.7339V57.9097ZM366.83 58.9058C366.83 58.3621 367.055 57.9406 367.504 57.6411C367.953 57.3416 368.523 57.1919 369.213 57.1919H370.404V56.8062C370.404 56.5262 370.323 56.2983 370.16 56.1226C369.997 55.9435 369.719 55.854 369.325 55.854C368.928 55.854 368.645 55.9321 368.476 56.0884C368.306 56.2446 368.222 56.4253 368.222 56.6304V56.6646H367.133V56.6304C367.133 56.2007 367.333 55.828 367.733 55.5122C368.137 55.1965 368.677 55.0386 369.354 55.0386C370.032 55.0386 370.557 55.1867 370.932 55.4829C371.306 55.7759 371.493 56.217 371.493 56.8062V59.2866C371.493 59.4982 371.509 59.6984 371.542 59.8872C371.578 60.076 371.625 60.2404 371.684 60.3804V60.4585H370.629C370.583 60.3771 370.541 60.2697 370.502 60.1362C370.466 60.0028 370.442 59.8726 370.429 59.7456C370.305 59.9572 370.098 60.146 369.809 60.312C369.522 60.4748 369.154 60.5562 368.705 60.5562C368.184 60.5562 367.742 60.4162 367.377 60.1362C367.012 59.853 366.83 59.4429 366.83 58.9058ZM367.919 58.8521C367.919 59.1287 368.004 59.3468 368.173 59.5063C368.345 59.6626 368.611 59.7407 368.969 59.7407C369.337 59.7407 369.667 59.6219 369.96 59.3843C370.256 59.1466 370.404 58.8927 370.404 58.6226V57.9292H369.325C368.863 57.9292 368.513 58.0122 368.275 58.1782C368.038 58.3442 367.919 58.5688 367.919 58.8521Z" fill="#2A2A2A"/>
<path d="M323.5 115.958C323.5 103.532 333.574 93.4585 346 93.4585C358.426 93.4585 368.5 103.532 368.5 115.958C368.5 128.385 358.426 138.458 346 138.458C333.574 138.458 323.5 128.385 323.5 115.958Z" fill="#F9F9F9"/>
<path d="M331.297 112.771H332.258L333.758 116.876C333.794 116.968 333.826 117.06 333.852 117.154C333.88 117.245 333.906 117.337 333.93 117.431H333.969C333.992 117.337 334.018 117.245 334.047 117.154C334.076 117.06 334.107 116.968 334.141 116.876L335.656 112.771H336.523L334.359 118.49H333.465L331.297 112.771ZM337.102 118.458V114.185H337.973V118.458H337.102ZM337.023 113.001C337.023 112.866 337.068 112.753 337.156 112.662C337.245 112.568 337.372 112.521 337.539 112.521C337.703 112.521 337.829 112.568 337.918 112.662C338.007 112.753 338.051 112.866 338.051 113.001C338.051 113.139 338.007 113.255 337.918 113.349C337.829 113.44 337.703 113.486 337.539 113.486C337.372 113.486 337.245 113.44 337.156 113.349C337.068 113.255 337.023 113.139 337.023 113.001ZM338.918 116.384V116.259C338.918 115.616 339.107 115.09 339.484 114.681C339.862 114.272 340.359 114.068 340.977 114.068C341.602 114.068 342.082 114.259 342.418 114.642C342.757 115.025 342.926 115.541 342.926 116.189V116.541H339.484V115.884H342.047L342.043 115.88C342.043 115.57 341.962 115.305 341.801 115.083C341.639 114.86 341.363 114.748 340.973 114.748C340.592 114.748 340.301 114.893 340.098 115.185C339.895 115.477 339.793 115.835 339.793 116.259V116.384C339.793 116.809 339.9 117.167 340.113 117.458C340.327 117.75 340.656 117.896 341.102 117.896C341.378 117.896 341.616 117.839 341.816 117.724C342.017 117.61 342.177 117.473 342.297 117.314L342.863 117.775C342.725 117.975 342.504 118.159 342.199 118.326C341.897 118.492 341.531 118.576 341.102 118.576C340.396 118.576 339.855 118.373 339.48 117.966C339.105 117.557 338.918 117.03 338.918 116.384ZM343.305 114.185H344.18L344.918 116.865C344.949 116.969 344.978 117.074 345.004 117.181C345.033 117.285 345.053 117.388 345.066 117.49H345.09C345.105 117.388 345.125 117.285 345.148 117.181C345.174 117.074 345.206 116.969 345.242 116.865L346.129 114.185H346.957L347.844 116.865C347.878 116.969 347.908 117.074 347.934 117.181C347.96 117.285 347.98 117.389 347.996 117.494H348.02C348.035 117.389 348.056 117.285 348.082 117.181C348.111 117.074 348.139 116.969 348.168 116.865L348.91 114.185H349.691L348.391 118.458H347.598L346.703 115.708C346.669 115.604 346.637 115.501 346.605 115.4C346.574 115.298 346.544 115.195 346.516 115.091H346.496C346.467 115.195 346.438 115.298 346.406 115.4C346.375 115.501 346.342 115.604 346.309 115.708L345.414 118.458H344.605L343.305 114.185ZM352.094 117.205C352.094 116.767 352.279 116.427 352.648 116.185C353.018 115.94 353.487 115.818 354.055 115.818H355.039V115.482C355.039 115.258 354.97 115.077 354.832 114.939C354.697 114.798 354.464 114.728 354.133 114.728C353.802 114.728 353.565 114.792 353.422 114.919C353.281 115.047 353.211 115.194 353.211 115.361V115.38H352.34V115.361C352.34 115.014 352.503 114.712 352.828 114.455C353.156 114.197 353.599 114.068 354.156 114.068C354.711 114.068 355.142 114.186 355.449 114.423C355.757 114.66 355.91 115.013 355.91 115.482V117.521C355.91 117.69 355.923 117.85 355.949 118.001C355.978 118.15 356.016 118.281 356.062 118.396V118.458H355.219C355.18 118.391 355.145 118.304 355.113 118.197C355.085 118.09 355.066 117.983 355.059 117.876C354.954 118.051 354.783 118.205 354.543 118.337C354.306 118.47 354.003 118.537 353.633 118.537C353.208 118.537 352.845 118.422 352.543 118.193C352.243 117.964 352.094 117.634 352.094 117.205ZM352.961 117.166C352.961 117.389 353.031 117.565 353.172 117.693C353.315 117.818 353.536 117.88 353.836 117.88C354.141 117.88 354.417 117.784 354.664 117.591C354.914 117.399 355.039 117.194 355.039 116.978V116.408H354.133C353.75 116.408 353.458 116.477 353.258 116.615C353.06 116.75 352.961 116.934 352.961 117.166ZM357.105 118.458V112.458H357.977V118.458H357.105ZM359.191 118.458V112.458H360.062V118.458H359.191Z" fill="#2A2A2A"/>
<defs>
<clipPath id="clip0_2470_15773">
<rect width="24" height="24" fill="white" transform="translate(26.5 12)"/>
</clipPath>
<clipPath id="clip1_2470_15773">
<rect width="24" height="24" fill="white" transform="translate(26.5 106)"/>
</clipPath>
<clipPath id="clip2_2470_15773">
<rect width="24" height="24" fill="white" transform="translate(121.5 12)"/>
</clipPath>
<clipPath id="clip3_2470_15773">
<rect width="24" height="24" fill="white" transform="translate(121.5 106)"/>
</clipPath>
<clipPath id="clip4_2470_15773">
<rect width="25.729" height="24" fill="white" transform="translate(225.636 12)"/>
</clipPath>
<clipPath id="clip5_2470_15773">
<rect width="24" height="24" fill="white" transform="translate(226.5 106)"/>
</clipPath>
<clipPath id="clip6_2470_15773">
<rect width="23.4583" height="23.4583" fill="white" transform="translate(334.271 12)"/>
</clipPath>
</defs>
</svg>
