<svg width="49" height="48" viewBox="0 0 49 48" fill="none" xmlns="http://www.w3.org/2000/svg">
<path d="M1 24C1 11.2975 11.2975 1 24 1H25C37.7026 1 48 11.2975 48 24C48 36.7025 37.7026 47 25 47H24C11.2975 47 1 36.7025 1 24Z" fill="#E89705"/>
<path d="M1 24C1 11.2975 11.2975 1 24 1H25C37.7026 1 48 11.2975 48 24C48 36.7025 37.7026 47 25 47H24C11.2975 47 1 36.7025 1 24Z" stroke="#FFA500" stroke-width="2"/>
<path d="M11.9165 32L16.9355 18.418H19.0137L24.0513 32H21.8525L18.2808 21.9526C18.2065 21.7424 18.1416 21.5413 18.0859 21.3496C18.0365 21.1579 17.9901 20.96 17.9468 20.7559H17.8633C17.82 20.96 17.7705 21.1579 17.7148 21.3496C17.6654 21.5413 17.6035 21.7424 17.5293 21.9526L13.9482 32H11.9165ZM14.2915 28.6416L14.8481 27.0088H21.0361L21.5835 28.6416H14.2915ZM25.4429 32V18.4922H29.562C31.3123 18.4922 32.7627 19.0581 33.9131 20.1899C35.0635 21.3218 35.6387 22.868 35.6387 24.8286V25.6636C35.6387 27.618 35.0635 29.1642 33.9131 30.3022C32.7689 31.4341 31.3185 32 29.562 32H25.4429ZM27.5303 30.3486H29.5435C30.7495 30.3486 31.7113 29.9435 32.4287 29.1333C33.1462 28.3231 33.5049 27.1789 33.5049 25.7007V24.7915C33.5049 23.3133 33.1431 22.1691 32.4194 21.3589C31.702 20.5487 30.7433 20.1436 29.5435 20.1436H27.5303V30.3486Z" fill="#2A2A2A"/>
</svg>
